<svg width="42" height="43" viewBox="0 0 42 43" fill="none" xmlns="http://www.w3.org/2000/svg">
<path d="M14.4375 35.9375C15.1624 35.9375 15.75 35.3499 15.75 34.625C15.75 33.9001 15.1624 33.3125 14.4375 33.3125C13.7126 33.3125 13.125 33.9001 13.125 34.625C13.125 35.3499 13.7126 35.9375 14.4375 35.9375Z" stroke="black" stroke-width="1.5" stroke-linecap="round" stroke-linejoin="round"/>
<path d="M32.8125 35.9375C33.5374 35.9375 34.125 35.3499 34.125 34.625C34.125 33.9001 33.5374 33.3125 32.8125 33.3125C32.0876 33.3125 31.5 33.9001 31.5 34.625C31.5 35.3499 32.0876 35.9375 32.8125 35.9375Z" stroke="black" stroke-width="1.5" stroke-linecap="round" stroke-linejoin="round"/>
<path d="M3.9375 7.0625H9.1875L13.125 29.375H34.125" stroke="black" stroke-width="1.5" stroke-linecap="round" stroke-linejoin="round"/>
<path d="M13.125 22.375H33.5869C33.7386 22.3751 33.8858 22.3226 34.0032 22.2264C34.1206 22.1303 34.201 21.9964 34.2308 21.8475L36.5933 10.035C36.6124 9.93979 36.6101 9.84149 36.5865 9.74725C36.563 9.653 36.5188 9.56516 36.4572 9.49005C36.3956 9.41495 36.3181 9.35446 36.2303 9.31294C36.1425 9.27143 36.0465 9.24993 35.9494 9.25H10.5" stroke="black" stroke-width="1.5" stroke-linecap="round" stroke-linejoin="round"/>
</svg>
