<svg width="53" height="51" viewBox="0 0 53 51" fill="none" xmlns="http://www.w3.org/2000/svg">
<ellipse cx="26.5" cy="25.5" rx="26.5" ry="25.5" fill="#FF0000"/>
<path d="M37.5 38.9375V35.4375C37.5 33.581 36.8731 31.8005 35.7573 30.4878C34.6414 29.175 33.128 28.4375 31.55 28.4375H21.1375C19.5595 28.4375 18.0461 29.175 16.9302 30.4878C15.8144 31.8005 15.1875 33.581 15.1875 35.4375V38.9375" stroke="white" stroke-width="1.5" stroke-linecap="round" stroke-linejoin="round"/>
<path d="M27.6562 21.875C30.9182 21.875 33.5625 19.2307 33.5625 15.9688C33.5625 12.7068 30.9182 10.0625 27.6562 10.0625C24.3943 10.0625 21.75 12.7068 21.75 15.9688C21.75 19.2307 24.3943 21.875 27.6562 21.875Z" stroke="white" stroke-width="1.5" stroke-linecap="round" stroke-linejoin="round"/>
</svg>
